# Blender 5.0.1
# www.blender.org
mtllib Legs.mtl
o Body
v 2.185398 -13.177022 2.736354
v -0.599450 -13.177022 3.260976
v -0.866599 -13.368368 2.005630
v 1.990468 -13.368367 1.820367
v 0.901237 -13.271461 -3.297992
v -1.856385 -13.271461 -2.645433
v -1.594599 -13.462807 -1.415285
v 1.096278 -13.462806 -2.381480
v -0.554468 -5.063107 0.631388
v -0.376395 -7.211692 1.121702
v -0.989547 -8.575918 1.220012
v -0.873213 -10.559942 1.766676
v -0.649135 -11.873415 2.057425
v -0.520309 -11.835865 2.662788
v -0.682541 -10.567913 2.662654
v -0.695289 -8.553746 2.602748
v -0.189352 -7.012654 2.000628
v -0.242340 -5.048625 2.098092
v 0.328686 -11.532900 2.534454
v 0.423184 -10.567913 2.493469
v 0.706340 -8.553746 2.368903
v 1.054386 -7.012654 1.787050
v 1.500319 -5.048625 1.780662
v 1.210022 -5.063107 0.416540
v 0.926817 -7.211692 1.187599
v 0.466578 -8.575918 1.242247
v 0.326877 -10.559942 2.040914
v 0.282172 -11.570449 2.315881
v 0.666985 -5.064365 -2.135220
v 0.250421 -7.008749 -1.990824
v -0.300723 -8.540985 -2.363342
v -0.607534 -10.520141 -2.349935
v -0.713064 -11.527011 -2.360789
v -1.541199 -11.829976 -2.134432
v -1.686193 -10.520141 -2.053563
v -1.675907 -8.540985 -2.005229
v -0.972205 -7.008749 -1.678040
v -1.053791 -5.064364 -1.714961
v -0.746635 -5.112202 -0.271617
v -0.782504 -7.263877 -0.786623
v -1.383609 -8.538549 -0.631706
v -1.496415 -10.538743 -1.161785
v -1.414319 -11.821388 -1.538216
v -0.662054 -11.518423 -2.121088
v -0.511741 -10.538743 -1.899797
v -0.063695 -8.538549 -1.249535
v 0.380334 -7.263877 -1.380356
v 0.951430 -5.112202 -0.798597
v 0.387918 -5.977772 -2.060740
v -1.008478 -5.977772 -1.709908
v -0.736269 -6.306483 -0.430781
v 0.626290 -6.306483 -0.940615
v -0.074349 -7.798343 -2.200396
v -1.380127 -7.798343 -1.862598
v -1.170248 -7.760991 -0.876364
v 0.065109 -7.760991 -1.545072
v -0.503966 -9.313643 -2.556185
v -1.891996 -9.313643 -2.189139
v -1.619873 -9.358822 -0.910416
v -0.309002 -9.358822 -1.640038
v -1.262741 -7.495823 -1.865322
v 0.184445 -7.512434 -1.400056
v 0.014946 -7.495823 -2.196542
v -1.031611 -7.512434 -0.779229
v -1.089671 -9.338247 1.581031
v -0.815128 -9.342089 2.871124
v 0.601943 -9.342089 2.640542
v 0.404469 -9.338247 1.712600
v -0.694757 -7.744738 1.357995
v -0.493989 -7.772512 2.301419
v 0.835687 -7.772512 2.075915
v 0.704958 -7.744738 1.461614
v -0.372711 -7.514219 2.316977
v 0.928978 -7.514219 2.098545
v -0.607430 -7.537981 1.214021
v 0.755249 -7.537981 1.282180
v -0.478363 -6.315561 0.781132
v -0.198017 -5.928524 2.098496
v 1.220235 -5.928524 1.850369
v 0.973343 -6.315561 0.690206
v -0.271728 -4.235785 2.029286
v 1.672720 -4.235785 1.666890
v -0.598289 -4.338700 0.494761
v 1.358131 -4.338700 0.188620
v -1.060973 -4.243655 -1.679421
v 1.183060 -4.363247 -0.634049
v 0.862191 -4.243656 -2.141833
v -0.728389 -4.363247 -0.116589
v 0.371716 -13.177022 3.287616
v 1.332458 -13.177022 3.265271
v 0.060430 -13.368367 1.824862
v 0.957517 -13.368367 1.503400
v -0.090517 -13.271461 -3.421371
v -0.977108 -13.271461 -3.050587
v -0.676584 -13.462806 -1.638407
v 0.273662 -13.462806 -1.710073
v 0.590897 -5.063107 0.342663
v 0.013636 -5.063107 0.465509
v 0.426801 -7.211692 0.857319
v 0.015690 -7.211692 0.944807
v -0.082299 -8.575918 0.936438
v -0.545136 -8.575918 1.034934
v -0.174139 -10.559942 1.474962
v -0.538227 -10.559942 1.552444
v -0.115293 -11.671437 1.820777
v -0.394739 -11.772426 1.880245
v 0.401415 -5.048625 2.287706
v 0.978676 -5.048625 2.164860
v 0.285368 -7.012654 2.212041
v 0.696480 -7.012654 2.124553
v -0.152288 -8.553746 2.880948
v 0.310549 -8.553746 2.782452
v -0.236192 -10.567913 2.971720
v 0.127895 -10.567913 2.894239
v -0.175752 -11.734877 2.909277
v 0.103694 -11.633888 2.849809
v -0.160896 -5.112202 -0.354625
v 0.416365 -5.112202 -0.477471
v -0.353149 -7.263877 -0.788386
v 0.057963 -7.263877 -0.875874
v -0.903034 -8.538549 -0.646847
v -0.440197 -8.538549 -0.745343
v -1.104236 -10.538743 -1.107265
v -0.740148 -10.538743 -1.184746
v -1.112365 -11.720400 -1.491920
v -0.832919 -11.619411 -1.551388
v 0.033775 -5.064365 -2.275286
v -0.543486 -5.064364 -2.152440
v -0.215121 -7.008749 -2.159107
v -0.626232 -7.008749 -2.071620
v -0.831341 -8.540985 -2.583352
v -1.294178 -8.540985 -2.484857
v -1.040817 -10.520141 -2.597606
v -1.404905 -10.520141 -2.520124
v -1.044416 -11.627999 -2.545227
v -1.323862 -11.728988 -2.485759
v -0.136728 -5.977772 -2.221888
v -0.605835 -5.977772 -2.122058
v -0.255751 -6.306483 -0.476991
v 0.213356 -6.306483 -0.576822
v -0.575701 -7.798343 -2.398369
v -1.015027 -7.798343 -2.304877
v -0.709461 -7.760991 -0.869008
v -0.270136 -7.760991 -0.962500
v -1.045722 -9.313643 -2.805434
v -1.513262 -9.313643 -2.705938
v -1.128447 -9.358822 -0.897674
v -0.660908 -9.358822 -0.997170
v -0.582594 -7.512434 -0.780990
v -0.152673 -7.512434 -0.872481
v -0.476378 -7.495823 -2.393589
v -0.906299 -7.495823 -2.302098
v -0.259292 -9.342089 3.186534
v 0.208247 -9.342089 3.087038
v -0.179364 -9.338247 1.265630
v -0.646904 -9.338247 1.365126
v 0.016846 -7.772512 2.543952
v 0.456171 -7.772512 2.450459
v 0.161718 -7.744738 1.066806
v -0.277608 -7.744738 1.160298
v 0.232580 -7.537981 0.937843
v -0.197341 -7.537981 1.029334
v 0.130104 -7.514219 2.568021
v 0.560025 -7.514219 2.476530
v 0.337914 -5.928524 2.312675
v 0.807021 -5.928524 2.212844
v 0.447593 -6.315561 0.523870
v -0.021514 -6.315561 0.623700
v 0.436914 -4.235785 2.192748
v 1.081575 -4.235785 2.055558
v 0.684603 -4.338700 0.190164
v 0.039942 -4.338700 0.327354
v 0.162531 -4.243656 -2.263081
v -0.482130 -4.243656 -2.125891
v -0.078219 -4.363247 -0.227892
v 0.566442 -4.363247 -0.365081
v -0.930740 -13.272696 2.675378
v 2.087933 -13.272696 2.278360
v 1.355171 -5.055866 1.098601
v 0.990602 -7.112174 1.487324
v 0.586459 -8.564832 1.805575
v 0.375031 -10.563928 2.267191
v 0.305429 -11.551674 2.425168
v -0.495091 -5.055866 1.385315
v -0.379561 -7.112174 1.581741
v -0.939106 -8.564832 1.931956
v -0.874564 -10.563928 2.235241
v -0.681409 -11.854640 2.380682
v -1.049087 -9.340169 2.246653
v 0.503206 -9.340169 2.176571
v -0.691060 -7.758625 1.850283
v 0.770322 -7.758625 1.768764
v 0.842113 -7.526100 1.690362
v -0.586758 -7.526100 1.786075
v -0.434878 -6.122042 1.460390
v 1.096789 -6.122042 1.270287
v -0.531696 -4.287242 1.282600
v 1.515426 -4.287242 0.927755
v 0.221321 -13.272696 2.580900
v 1.144988 -13.272696 2.384336
v 0.998757 -13.367133 -2.839736
v -1.923208 -13.367133 -1.988284
v -0.996900 -5.088283 -0.972713
v -0.974042 -7.136313 -1.211755
v -1.626446 -8.539766 -1.297892
v -1.687991 -10.529441 -1.587098
v -1.574446 -11.825683 -1.815748
v 0.809208 -5.088284 -1.466909
v 0.315378 -7.136313 -1.685590
v -0.182209 -8.539766 -1.806438
v -0.559637 -10.529441 -2.124866
v -0.687559 -11.522717 -2.240939
v 0.507104 -6.142128 -1.500677
v -0.969061 -6.142128 -1.049768
v -0.004620 -7.779666 -1.872734
v -1.371875 -7.779666 -1.348905
v -0.406484 -9.336232 -2.098112
v -1.852622 -9.336232 -1.529202
v -1.243863 -7.504129 -1.301700
v 0.099696 -7.504129 -1.798299
v 1.022625 -4.303452 -1.387941
v -0.991369 -4.303451 -0.877429
v -0.832094 -13.367133 -2.369158
v 0.091572 -13.367133 -2.565723
vn 0.1488 0.5519 -0.8205
vn -0.9826 0.1481 -0.1125
vn -0.0154 -0.9894 0.1447
vn -0.2158 0.2907 0.9321
vn 0.4012 0.4981 -0.7687
vn 0.6546 0.7019 -0.2809
vn 0.6539 0.7025 -0.2809
vn 0.6545 0.7019 -0.2809
vn -0.0216 -0.9920 -0.1244
vn -0.0118 -0.9899 -0.1411
vn -0.0112 -0.9898 -0.1418
vn 0.1431 0.0039 0.9897
vn 0.7259 0.6862 -0.0460
vn 0.7335 0.6779 -0.0489
vn 0.7332 0.6782 -0.0488
vn -0.9693 0.2335 -0.0775
vn 0.9526 -0.2351 -0.1930
vn 0.9769 -0.1401 -0.1612
vn 0.9517 -0.2300 -0.2033
vn 0.9712 -0.1171 -0.2077
vn 0.9712 -0.1169 -0.2077
vn 0.9739 -0.1022 -0.2027
vn 0.9739 -0.1025 -0.2027
vn 0.9741 -0.1000 -0.2029
vn 0.0539 -0.2620 -0.9636
vn 0.3998 -0.3978 -0.8258
vn 0.5399 0.0204 -0.8415
vn 0.6715 -0.1781 -0.7192
vn 0.7592 -0.1781 -0.6260
vn -0.2514 0.0979 0.9629
vn -0.3870 -0.0763 0.9189
vn -0.4007 0.4263 0.8110
vn -0.5205 -0.1773 0.8353
vn -0.5670 -0.0729 0.8205
vn -0.9957 -0.0403 0.0829
vn -0.9961 -0.0700 0.0533
vn -0.9487 0.3130 0.0434
vn -0.9873 -0.1555 0.0333
vn -0.9856 -0.1644 -0.0388
vn -0.9967 -0.0076 0.0812
vn -0.9994 -0.0173 0.0289
vn -0.9391 0.3415 0.0388
vn -0.9880 -0.1516 0.0287
vn -0.9946 -0.0933 -0.0450
vn 0.9464 -0.2404 -0.2156
vn 0.9589 -0.1351 -0.2496
vn 0.9515 -0.2360 -0.1972
vn 0.9699 -0.1197 -0.2120
vn 0.9699 -0.1199 -0.2120
vn 0.9729 -0.1005 -0.2085
vn 0.9727 -0.1015 -0.2085
vn 0.9728 -0.1014 -0.2085
vn 0.1524 -0.1926 0.9694
vn 0.0497 -0.3320 0.9420
vn 0.0079 0.2856 0.9583
vn -0.0744 -0.1957 0.9778
vn -0.0949 -0.2964 0.9503
vn 0.1923 -0.0346 -0.9807
vn 0.3143 -0.0937 -0.9447
vn 0.3737 0.0949 -0.9227
vn 0.4475 -0.1690 -0.8782
vn 0.4958 -0.0426 -0.8674
vn 0.2497 -0.1286 -0.9597
vn 0.1194 -0.1204 0.9855
vn 0.9403 -0.2438 -0.2375
vn -0.9972 -0.0394 0.0632
vn 0.3678 -0.1015 -0.9243
vn -0.0058 -0.3463 0.9381
vn 0.9290 -0.3156 -0.1932
vn -0.9209 0.3894 0.0194
vn 0.3971 0.1364 -0.9076
vn 0.0023 -0.3078 0.9515
vn 0.9593 -0.1908 -0.2082
vn -0.9648 0.2543 0.0667
vn -0.8456 0.5272 0.0835
vn 0.8264 -0.4935 -0.2712
vn 0.0040 0.0259 0.9997
vn 0.3468 0.2336 -0.9084
vn -0.9846 0.1627 0.0640
vn -0.4430 0.3623 0.8201
vn 0.4961 -0.4433 -0.7465
vn 0.9589 -0.1989 -0.2023
vn 0.9590 -0.1982 -0.2023
vn 0.9586 -0.2006 -0.2022
vn -0.9126 0.4084 0.0217
vn -0.4341 0.1287 0.8916
vn 0.4494 -0.6149 -0.6480
vn 0.9222 -0.3326 -0.1972
vn 0.9240 -0.3555 -0.1407
vn 0.4860 -0.4701 -0.7368
vn -0.3421 0.6001 0.7231
vn -0.8666 0.4974 -0.0390
vn -0.9956 -0.0509 0.0786
vn -0.3238 0.0172 0.9460
vn 0.2010 -0.2045 -0.9580
vn 0.9467 -0.2814 -0.1567
vn -0.2986 -0.1213 -0.9466
vn -0.2067 -0.1169 -0.9714
vn 0.6205 -0.1073 0.7768
vn 0.2081 0.0127 0.9780
vn 0.6741 0.2770 0.6848
vn 0.1761 0.5329 0.8277
vn -0.4107 0.0326 -0.9112
vn -0.2067 -0.1167 -0.9714
vn -0.3850 -0.3977 -0.8328
vn -0.1832 -0.4743 -0.8611
vn 0.6719 -0.3194 0.6683
vn 0.2048 -0.1795 0.9622
vn -0.3877 -0.3375 -0.8578
vn -0.1935 -0.3681 -0.9094
vn 0.7285 0.1489 0.6687
vn 0.1964 0.3311 0.9229
vn -0.6184 0.5865 -0.5231
vn -0.1799 0.5033 -0.8452
vn 0.6881 -0.5772 0.4397
vn 0.2054 -0.1609 0.9654
vn 0.7699 -0.4101 0.4889
vn 0.1961 -0.3356 0.9214
vn -0.7424 0.3576 -0.5666
vn -0.1971 0.3210 -0.9264
vn 0.7164 -0.5464 0.4339
vn 0.1896 -0.4123 0.8911
vn -0.7426 0.2776 -0.6095
vn -0.2074 0.0835 -0.9747
vn 0.5730 -0.2068 0.7930
vn 0.2067 -0.1160 0.9715
vn -0.6812 -0.0078 -0.7320
vn -0.2081 -0.0183 -0.9779
vn -0.8483 -0.0664 -0.5254
vn -0.2014 -0.0434 -0.9785
vn -0.8168 -0.1794 -0.5483
vn -0.2052 -0.1670 -0.9644
vn -0.7119 0.4008 -0.5767
vn -0.1985 0.3007 -0.9328
vn -0.7322 -0.0328 -0.6803
vn -0.2079 -0.0437 -0.9772
vn -0.6294 0.0501 -0.7755
vn -0.2079 0.0471 -0.9770
vn 0.9416 -0.1903 0.2777
vn 0.2446 -0.3154 0.9169
vn 0.9043 -0.1813 0.3865
vn 0.2052 -0.1671 0.9643
vn 0.8364 0.0199 0.5478
vn 0.2030 0.2220 0.9537
vn 0.7063 -0.3788 0.5981
vn 0.1971 -0.3213 0.9262
vn 0.4390 -0.2703 0.8569
vn 0.2045 -0.1852 0.9612
vn 0.8113 -0.0484 0.5826
vn 0.2144 -0.0432 0.9758
vn 0.7649 -0.1671 0.6220
vn 0.2053 -0.1652 0.9647
vn 0.7044 0.1532 0.6930
vn 0.1948 0.3526 0.9153
vn 0.6659 -0.1362 0.7335
vn 0.2071 -0.1004 0.9732
vn 0.5704 0.0161 0.8212
vn 0.2070 0.1046 0.9727
vn -0.4990 -0.2739 -0.8221
vn -0.1560 -0.2875 -0.9450
vn -0.4748 -0.1942 -0.8584
vn -0.2053 -0.1661 -0.9645
vn -0.3908 0.2715 -0.8795
vn -0.2035 0.2097 -0.9563
vn -0.3434 -0.3486 -0.8721
vn -0.1959 -0.3380 -0.9205
vn -0.2618 -0.1829 -0.9476
vn -0.2049 -0.1762 -0.9628
vn 0.6792 0.4495 0.5802
vn 0.1090 -0.0376 0.9933
vn -0.0544 -0.9890 -0.1378
vn -0.0551 -0.9889 -0.1381
vn -0.0541 -0.9891 -0.1369
vn -0.0372 -0.9914 -0.1254
vn -0.2908 0.0108 -0.9567
vn -0.3052 -0.0339 -0.9517
vn 0.4673 0.5814 0.6661
vn 0.0406 0.2792 0.9594
vn 0.0059 -0.9896 0.1435
vn 0.0175 -0.9911 0.1318
vn 0.0245 -0.9924 0.1203
vn 0.0165 -0.9919 0.1260
vn 0.0312 -0.9935 0.1095
vn 0.0301 -0.9924 0.1191
vn -0.5630 0.2750 -0.7794
vn -0.3540 0.2616 -0.8979
vn 0.0052 -0.9897 0.1430
vn 0.0457 -0.9903 0.1313
vn 0.0046 -0.9895 0.1448
vn 0.9574 -0.2363 -0.1661
vn -0.9377 -0.0370 0.3454
vn -0.8119 0.5090 0.2859
vn 0.8923 -0.4347 -0.1215
vn 0.9096 -0.3670 -0.1946
vn -0.8370 0.4195 0.3513
vn 0.9585 -0.2012 -0.2022
vn -0.9072 0.2574 0.3328
vn -0.8901 -0.0983 0.4450
vn -0.9169 -0.1482 0.3705
vn -0.8777 0.3319 0.3457
vn -0.9246 -0.0242 0.3803
vn -0.9434 -0.0034 0.3316
vn 0.9741 -0.0997 -0.2029
vn 0.9711 -0.1173 -0.2077
vn 0.9533 -0.2231 -0.2036
vn 0.9769 -0.1402 -0.1612
vn 0.9497 -0.2474 -0.1919
vn 0.6552 0.7013 -0.2809
vn 0.0465 -0.9902 0.1316
vn -0.8561 0.2485 0.4530
vn -0.0277 -0.9920 -0.1233
vn -0.0166 -0.9931 -0.1162
vn -0.0393 -0.9906 -0.1308
vn 0.8904 -0.3725 -0.2614
vn -0.7292 0.5615 0.3912
vn -0.9255 0.1559 0.3451
vn 0.9581 -0.1968 -0.2080
vn -0.8684 0.3433 0.3577
vn 0.9376 -0.2876 -0.1954
vn -0.9402 -0.0514 0.3367
vn 0.9295 -0.2796 -0.2407
vn 0.9729 -0.1003 -0.2085
vn 0.9699 -0.1196 -0.2120
vn 0.9499 -0.2427 -0.1967
vn 0.9575 -0.1414 -0.2515
vn 0.9486 -0.2317 -0.2155
vn -0.8817 -0.1701 0.4400
vn -0.9163 -0.1591 0.3675
vn -0.8804 0.3329 0.3378
vn -0.9308 -0.0707 0.3585
vn -0.9435 -0.0391 0.3290
vn -0.8530 0.1339 0.5045
vn 0.7254 0.6868 -0.0458
vn -0.0705 -0.9891 -0.1290
vt 0.375000 0.666667
vt 0.375000 0.750000
vt 0.375000 0.306121
vt 0.375000 0.362242
vt 0.181121 0.666667
vt 0.237242 0.666667
vt 0.237242 0.750000
vt 0.181121 0.750000
vt 0.375000 0.166667
vt 0.375000 0.250000
vt 0.375000 0.943879
vt 0.375000 1.000000
vt 0.316514 0.666667
vt 0.316514 0.750000
vt 0.258027 0.583333
vt 0.258027 0.500000
vt 0.258028 0.500000
vt 0.375000 0.808486
vt 0.375000 0.866973
vt 0.375000 0.441514
vt 0.375000 0.500000
vt 0.375000 0.441514
vt 0.375000 0.362242
vt 0.375000 0.500000
vt 0.375000 0.866972
vt 0.375000 0.808486
vt 0.375000 0.866973
vt 0.375000 0.666667
vt 0.375000 0.666667
vt 0.375000 0.750000
vt 0.375000 0.866972
vt 0.375000 0.362242
vt 0.237242 0.500000
vt 0.237242 0.583333
vt 0.375000 0.000000
vt 0.375000 0.083333
vt 0.375000 0.583333
vt 0.258027 0.750000
vt 0.258027 0.666667
vt 0.258028 0.750000
vt 0.375000 0.583333
vt 0.375000 0.583333
vt 0.316514 0.500000
vt 0.316514 0.583333
vt 0.181121 0.500000
vt 0.181121 0.583333
vt 0.125000 0.583333
vt 0.125000 0.666667
vt 0.125000 0.500000
vt 0.375000 0.887758
vt 0.375000 0.887758
vt 0.125000 0.750000
vt 0.375000 0.383028
vt 0.375000 0.383027
s 1
f 135/1/1 33/2/1 5/2/1 93/1/1
f 188/3/2 13/4/2 3/4/2 177/3/2
f 200/5/3 92/6/3 4/7/3 178/8/3
f 115/9/4 14/10/4 2/10/4 89/9/4
f 105/6/5 28/7/5 4/7/5 92/6/5
f 183/11/6 19/12/7 1/12/7 178/11/8
f 224/13/9 93/1/10 5/2/11 201/14/11
f 125/15/12 43/16/12 7/17/12 95/15/12
f 212/18/13 44/19/14 8/19/14 201/18/15
f 207/20/16 34/21/16 6/21/16 202/22/16
f 198/11/17 82/12/17 23/12/17 179/11/17
f 196/11/18 79/12/18 22/12/18 180/11/18
f 192/11/19 71/12/19 21/12/19 181/11/19
f 190/11/20 67/12/21 20/12/21 182/11/20
f 182/11/22 20/12/23 19/12/23 183/11/24
f 171/6/25 84/7/25 24/7/25 97/6/25
f 167/6/26 80/7/26 25/7/26 99/6/26
f 159/6/27 72/7/27 26/7/27 101/6/27
f 155/6/28 68/7/28 27/7/28 103/6/28
f 103/6/29 27/7/29 28/7/29 105/6/29
f 169/9/30 81/10/30 18/10/30 107/9/30
f 165/9/31 78/10/31 17/10/31 109/9/31
f 157/9/32 70/10/32 16/10/32 111/9/32
f 153/9/33 66/10/33 15/10/33 113/9/33
f 113/9/34 15/10/34 14/10/34 115/9/34
f 197/3/35 83/4/35 9/4/35 184/3/35
f 195/3/36 77/4/36 10/4/36 185/3/36
f 191/3/37 69/23/37 11/4/37 186/3/37
f 189/3/38 65/4/38 12/4/38 187/3/38
f 187/3/39 12/4/39 13/4/39 188/3/39
f 222/22/40 85/21/40 38/21/40 203/22/40
f 214/20/41 50/21/41 37/21/41 204/22/41
f 216/20/42 54/24/42 36/21/42 205/22/42
f 218/20/43 58/21/43 35/21/43 206/20/43
f 206/20/44 35/21/44 34/21/44 207/20/44
f 221/18/45 86/19/45 48/19/45 208/18/45
f 213/18/46 52/19/46 47/19/46 209/18/46
f 215/18/47 56/25/47 46/19/47 210/18/47
f 217/26/48 60/27/49 45/19/49 211/18/48
f 211/18/50 45/19/51 44/19/51 212/18/52
f 175/15/53 88/17/53 39/17/53 117/15/53
f 139/15/54 51/17/54 40/17/54 119/15/54
f 143/15/55 55/17/55 41/17/55 121/15/55
f 147/15/56 59/16/56 42/16/56 123/15/56
f 123/15/57 42/16/57 43/16/57 125/15/57
f 173/1/58 87/2/58 29/2/58 127/1/58
f 137/1/59 49/2/59 30/2/59 129/1/59
f 141/28/60 53/2/60 31/2/60 131/1/60
f 145/29/61 57/30/61 32/2/61 133/1/61
f 133/1/62 32/2/62 33/2/62 135/1/62
f 127/1/63 29/2/63 49/2/63 137/1/63
f 117/15/64 39/17/64 51/17/64 139/15/64
f 208/18/65 48/19/65 52/19/65 213/18/65
f 203/22/66 38/21/66 50/21/66 214/20/66
f 151/1/67 63/2/67 53/2/67 141/28/67
f 149/15/68 64/17/68 55/17/68 143/15/68
f 220/18/69 62/31/69 56/25/69 215/18/69
f 219/20/70 61/21/70 54/24/70 216/20/70
f 131/1/71 31/2/71 57/30/71 145/29/71
f 121/15/72 41/17/72 59/16/72 147/15/72
f 210/18/73 46/19/73 60/27/73 217/26/73
f 205/22/74 36/21/74 58/21/74 218/20/74
f 204/22/75 37/21/75 61/21/75 219/20/75
f 209/18/76 47/19/76 62/31/76 220/18/76
f 119/15/77 40/17/77 64/17/77 149/15/77
f 129/1/78 30/2/78 63/2/78 151/1/78
f 186/3/79 11/4/79 65/4/79 189/3/79
f 111/9/80 16/10/80 66/10/80 153/9/80
f 101/6/81 26/7/81 68/7/81 155/6/81
f 181/11/82 21/12/83 67/12/83 190/11/84
f 194/3/85 75/32/85 69/23/85 191/3/85
f 163/9/86 73/10/86 70/10/86 157/9/86
f 161/6/87 76/7/87 72/7/87 159/6/87
f 193/11/88 74/12/88 71/12/88 192/11/88
f 180/11/89 22/12/89 74/12/89 193/11/89
f 99/6/90 25/7/90 76/7/90 161/6/90
f 109/9/91 17/10/91 73/10/91 163/9/91
f 185/3/92 10/4/92 75/32/92 194/3/92
f 184/3/93 9/4/93 77/4/93 195/3/93
f 107/9/94 18/10/94 78/10/94 165/9/94
f 97/6/95 24/7/95 80/7/95 167/6/95
f 179/11/96 23/12/96 79/12/96 196/11/96
f 9/33/97 98/34/97 168/34/97 77/33/97
f 98/34/98 97/6/98 167/6/98 168/34/98
f 23/35/99 108/36/99 166/36/99 79/35/99
f 108/36/100 107/9/100 165/9/100 166/36/100
f 22/35/101 110/36/101 164/36/101 74/35/101
f 110/36/102 109/9/102 163/9/102 164/36/102
f 10/33/103 100/34/103 162/34/103 75/33/103
f 100/34/104 99/6/104 161/6/104 162/34/104
f 75/33/105 162/34/105 160/34/105 69/33/105
f 162/34/106 161/6/106 159/6/106 160/34/106
f 74/35/107 164/36/107 158/36/107 71/35/107
f 164/36/108 163/9/108 157/9/108 158/36/108
f 11/33/109 102/34/109 156/34/109 65/33/109
f 102/34/110 101/6/110 155/6/110 156/34/110
f 21/35/111 112/36/111 154/36/111 67/35/111
f 112/36/112 111/9/112 153/9/112 154/36/112
f 37/21/113 130/37/113 152/37/113 61/21/113
f 130/37/114 129/1/114 151/1/114 152/37/114
f 47/38/115 120/39/115 150/39/115 62/38/115
f 120/39/116 119/15/116 149/15/116 150/39/116
f 46/40/117 122/39/117 148/39/117 60/40/117
f 122/39/118 121/15/118 147/15/118 148/39/118
f 36/21/119 132/37/119 146/41/119 58/21/119
f 132/37/120 131/1/120 145/29/120 146/41/120
f 62/38/121 150/39/121 144/39/121 56/38/121
f 150/39/122 149/15/122 143/15/122 144/39/122
f 61/21/123 152/37/123 142/42/123 54/24/123
f 152/37/124 151/1/124 141/28/124 142/42/124
f 48/38/125 118/39/125 140/39/125 52/38/125
f 118/39/126 117/15/126 139/15/126 140/39/126
f 38/21/127 128/37/127 138/37/127 50/21/127
f 128/37/128 127/1/128 137/1/128 138/37/128
f 35/21/129 134/37/129 136/37/129 34/21/129
f 134/37/130 133/1/130 135/1/130 136/37/130
f 58/21/131 146/41/131 134/37/131 35/21/131
f 146/41/132 145/29/132 133/1/132 134/37/132
f 54/24/133 142/42/133 132/37/133 36/21/133
f 142/42/134 141/28/134 131/1/134 132/37/134
f 50/21/135 138/37/135 130/37/135 37/21/135
f 138/37/136 137/1/136 129/1/136 130/37/136
f 85/21/137 174/37/137 128/37/137 38/21/137
f 174/37/138 173/1/138 127/1/138 128/37/138
f 45/40/139 124/39/139 126/39/139 44/40/139
f 124/39/140 123/15/140 125/15/140 126/39/140
f 60/40/141 148/39/141 124/39/141 45/40/141
f 148/39/142 147/15/142 123/15/142 124/39/142
f 56/38/143 144/39/143 122/39/143 46/40/143
f 144/39/144 143/15/144 121/15/144 122/39/144
f 52/38/145 140/39/145 120/39/145 47/38/145
f 140/39/146 139/15/146 119/15/146 120/39/146
f 86/38/147 176/39/147 118/39/147 48/38/147
f 176/39/148 175/15/148 117/15/148 118/39/148
f 20/35/149 114/36/149 116/36/149 19/35/149
f 114/36/150 113/9/150 115/9/150 116/36/150
f 67/35/151 154/36/151 114/36/151 20/35/151
f 154/36/152 153/9/152 113/9/152 114/36/152
f 71/35/153 158/36/153 112/36/153 21/35/153
f 158/36/154 157/9/154 111/9/154 112/36/154
f 79/35/155 166/36/155 110/36/155 22/35/155
f 166/36/156 165/9/156 109/9/156 110/36/156
f 82/35/157 170/36/157 108/36/157 23/35/157
f 170/36/158 169/9/158 107/9/158 108/36/158
f 12/33/159 104/34/159 106/34/159 13/33/159
f 104/34/160 103/6/160 105/6/160 106/34/160
f 65/33/161 156/34/161 104/34/161 12/33/161
f 156/34/162 155/6/162 103/6/162 104/34/162
f 69/33/163 160/34/163 102/34/163 11/33/163
f 160/34/164 159/6/164 101/6/164 102/34/164
f 77/33/165 168/34/165 100/34/165 10/33/165
f 168/34/166 167/6/166 99/6/166 100/34/166
f 83/33/167 172/34/167 98/34/167 9/33/167
f 172/34/168 171/6/168 97/6/168 98/34/168
f 44/40/169 126/39/169 96/39/169 8/40/169
f 126/39/170 125/15/170 95/15/170 96/39/170
f 202/43/171 6/21/172 94/37/173 223/44/174
f 223/44/174 94/37/173 93/1/10 224/13/9
f 13/33/175 106/34/175 91/34/175 3/33/175
f 106/34/176 105/6/176 92/6/176 91/34/176
f 19/35/177 116/36/177 90/36/177 1/35/177
f 116/36/178 115/9/178 89/9/178 90/36/178
f 177/45/179 3/33/180 91/34/181 199/46/182
f 199/46/182 91/34/181 92/6/183 200/5/184
f 34/21/185 136/37/185 94/37/185 6/21/185
f 136/37/186 135/1/186 93/1/186 94/37/186
f 89/47/187 199/46/182 200/5/184 90/48/188
f 2/49/189 177/45/179 199/46/182 89/47/187
f 24/50/190 179/11/190 196/11/190 80/50/190
f 18/10/191 184/3/191 195/3/191 78/10/191
f 17/10/192 185/3/192 194/3/192 73/10/192
f 25/51/193 180/11/193 193/11/193 76/51/193
f 76/51/194 193/11/194 192/11/194 72/51/194
f 73/10/195 194/3/195 191/3/195 70/10/195
f 26/51/196 181/11/82 190/11/84 68/50/196
f 16/10/197 186/3/197 189/3/197 66/10/197
f 15/10/198 187/3/198 188/3/198 14/10/198
f 66/10/199 189/3/199 187/3/199 15/10/199
f 70/10/200 191/3/200 186/3/200 16/10/200
f 78/10/201 195/3/201 185/3/201 17/10/201
f 81/10/202 197/3/202 184/3/202 18/10/202
f 27/50/203 182/11/22 183/11/24 28/50/203
f 68/50/204 190/11/20 182/11/20 27/50/204
f 72/51/205 192/11/205 181/11/205 26/51/205
f 80/50/206 196/11/18 180/11/18 25/51/206
f 84/50/207 198/11/207 179/11/207 24/50/207
f 28/50/208 183/11/6 178/11/8 4/50/208
f 90/48/188 200/5/184 178/8/209 1/52/209
f 14/10/210 188/3/210 177/3/210 2/10/210
f 95/15/211 223/44/174 224/13/9 96/39/212
f 7/17/213 202/43/171 223/44/174 95/15/211
f 30/2/214 209/18/214 220/18/214 63/2/214
f 40/53/215 204/22/215 219/20/215 64/54/215
f 41/53/216 205/22/216 218/20/216 59/54/216
f 31/2/217 210/18/217 217/26/217 57/30/217
f 64/54/218 219/20/218 216/20/218 55/53/218
f 63/2/219 220/18/219 215/18/219 53/2/219
f 39/53/220 203/22/220 214/20/220 51/54/220
f 29/2/221 208/18/221 213/18/221 49/2/221
f 32/2/222 211/18/50 212/18/52 33/2/222
f 57/30/223 217/26/48 211/18/48 32/2/223
f 53/2/224 215/18/224 210/18/224 31/2/224
f 49/2/225 213/18/225 209/18/225 30/2/225
f 87/2/226 221/18/226 208/18/226 29/2/226
f 42/54/227 206/20/227 207/20/227 43/54/227
f 59/54/228 218/20/228 206/20/228 42/54/228
f 55/53/229 216/20/229 205/22/229 41/53/229
f 51/54/230 214/20/230 204/22/230 40/53/230
f 88/53/231 222/22/231 203/22/231 39/53/231
f 43/54/232 207/20/232 202/22/232 7/53/232
f 33/2/233 212/18/13 201/18/15 5/2/233
f 96/39/234 224/13/234 201/14/234 8/40/234
