# Blender 5.0.1
# www.blender.org
mtllib Legs.mtl
o Body
v -1.564281 -13.617365 -0.444280
v -3.938027 -12.547715 0.674554
v -4.265799 -12.009005 -0.459568
v -1.830494 -13.263750 -1.291469
v 0.901237 -13.919127 -3.102713
v -1.856385 -13.447064 -2.652169
v -1.594599 -12.689284 -1.664421
v 1.096278 -13.388231 -2.331509
v -0.554468 -5.063107 0.631388
v -0.628482 -7.146943 0.974509
v -1.864507 -7.944648 0.687037
v -2.802841 -9.756594 0.395303
v -3.298689 -10.993260 0.104191
v -3.169244 -11.294795 0.630301
v -2.644484 -10.251371 1.149833
v -1.602094 -8.681920 1.864580
v -0.364969 -7.474474 1.793286
v -0.242340 -5.048625 2.098092
v -2.287151 -11.403822 0.432629
v -1.701988 -10.693515 0.740613
v -0.407375 -9.233745 1.328498
v 0.695168 -7.961428 1.312154
v 1.500319 -5.048625 1.780662
v 1.210022 -5.063107 0.416540
v 0.482349 -7.786332 0.729677
v -0.623337 -8.636147 0.367473
v -1.779910 -10.440595 0.361003
v -2.346435 -11.313255 0.233554
v 0.666985 -5.064365 -2.135220
v 0.250421 -7.008749 -1.990824
v -0.300723 -8.540985 -2.363342
v -0.607534 -10.520141 -2.349935
v -0.713064 -11.527011 -2.360789
v -1.541199 -11.829976 -2.134432
v -1.686193 -10.520141 -2.053563
v -1.675907 -8.540985 -2.005229
v -0.972205 -7.008749 -1.678040
v -1.053791 -5.064364 -1.714961
v -0.746635 -5.112202 -0.271617
v -0.782504 -7.263877 -0.786623
v -1.383609 -8.538549 -0.631706
v -1.496415 -10.538743 -1.161785
v -1.414319 -11.821388 -1.538216
v -0.662054 -11.518423 -2.121088
v -0.511741 -10.538743 -1.899797
v -0.063695 -8.538549 -1.249535
v 0.380334 -7.263877 -1.380356
v 0.951430 -5.112202 -0.798597
v 0.387918 -5.977772 -2.060740
v -1.008478 -5.977772 -1.709908
v -0.736269 -6.306483 -0.430781
v 0.626290 -6.306483 -0.940615
v -0.074349 -7.798343 -2.200396
v -1.380127 -7.798343 -1.862598
v -1.170248 -7.760991 -0.876364
v 0.065109 -7.760991 -1.545072
v -0.503966 -9.313643 -2.556185
v -1.891996 -9.313643 -2.189139
v -1.619873 -9.358822 -0.910416
v -0.309002 -9.358822 -1.640038
v -1.262741 -7.495823 -1.865322
v 0.184445 -7.512434 -1.400056
v 0.014946 -7.495823 -2.196542
v -1.031611 -7.512434 -0.779229
v -2.348491 -8.640377 0.743844
v -2.116485 -9.346965 1.833171
v -0.908604 -9.907473 1.296410
v -1.074918 -9.398413 0.513286
v -1.178589 -7.509974 1.057678
v -1.021982 -8.045737 1.844798
v 0.111404 -8.567599 1.332958
v 0.014498 -8.211349 0.824114
v -0.783540 -7.912367 1.928606
v 0.325992 -8.424283 1.429619
v -0.996035 -7.328912 0.987015
v 0.165482 -7.997143 0.730343
v -0.478363 -6.315561 0.781132
v -0.198017 -5.928524 2.098496
v 1.220235 -5.928524 1.850369
v 0.973343 -6.315561 0.690206
v -0.271728 2.631562 2.029286
v 1.672720 2.631562 1.666890
v -0.598289 2.528648 0.494761
v 1.358131 2.528648 0.188620
v -1.060973 2.623693 -1.679421
v 1.183060 2.504101 -0.634049
v 0.862190 2.623692 -2.141833
v -0.728389 2.504101 -0.116589
v -3.110225 -13.014177 0.471991
v -2.291309 -13.453922 0.228012
v -3.475619 -12.362339 -0.837496
v -2.710960 -12.638935 -1.334381
v -0.090517 -14.008379 -3.187898
v -0.977108 -13.740154 -2.931899
v -0.676584 -12.850690 -1.818471
v 0.273662 -12.902534 -1.867952
v 0.590897 -5.063107 0.342663
v 0.013636 -5.063107 0.465509
v 0.056145 -7.405038 0.550604
v -0.294277 -7.251608 0.724759
v -1.091188 -8.242893 0.221696
v -1.485700 -8.070159 0.417763
v -2.206965 -9.953766 -0.028791
v -2.517306 -9.817885 0.125444
v -2.738034 -10.983535 -0.155340
v -3.029037 -10.956295 -0.075337
v 0.401415 -5.048625 2.287706
v 0.978676 -5.048625 2.164860
v 0.039673 -7.790934 1.871855
v 0.390096 -7.944364 1.697700
v -1.139251 -9.060116 1.987012
v -0.744739 -9.232849 1.790946
v -2.264026 -10.598086 1.322428
v -1.953686 -10.733967 1.168193
v -2.822742 -11.488913 0.808989
v -2.531739 -11.516152 0.728986
v -0.160896 -5.112202 -0.354625
v 0.416365 -5.112202 -0.477471
v -0.353149 -7.263877 -0.788386
v 0.057963 -7.263877 -0.875874
v -0.903034 -8.538549 -0.646847
v -0.440197 -8.538549 -0.745343
v -1.104236 -10.538743 -1.107265
v -0.740148 -10.538743 -1.184746
v -1.112365 -11.720400 -1.491920
v -0.832919 -11.619411 -1.551388
v 0.033775 -5.064365 -2.275286
v -0.543486 -5.064364 -2.152440
v -0.215121 -7.008749 -2.159107
v -0.626232 -7.008749 -2.071620
v -0.831341 -8.540985 -2.583352
v -1.294178 -8.540985 -2.484857
v -1.040817 -10.520141 -2.597606
v -1.404905 -10.520141 -2.520124
v -1.044416 -11.627999 -2.545227
v -1.323862 -11.728988 -2.485759
v -0.136728 -5.977772 -2.221888
v -0.605835 -5.977772 -2.122058
v -0.255751 -6.306483 -0.476991
v 0.213356 -6.306483 -0.576822
v -0.575701 -7.798343 -2.398369
v -1.015027 -7.798343 -2.304877
v -0.709461 -7.760991 -0.869008
v -0.270136 -7.760991 -0.962500
v -1.045722 -9.313643 -2.805434
v -1.513262 -9.313643 -2.705938
v -1.128447 -9.358822 -0.897674
v -0.660908 -9.358822 -0.997170
v -0.582594 -7.512434 -0.780990
v -0.152673 -7.512434 -0.872481
v -0.476378 -7.495823 -2.393589
v -0.906299 -7.495823 -2.302098
v -1.642703 -9.747757 1.985920
v -1.244182 -9.922247 1.787861
v -1.572565 -8.925863 0.249301
v -1.971086 -8.751373 0.447361
v -0.586558 -8.392975 1.942805
v -0.212086 -8.556935 1.756697
v -0.448548 -7.781055 0.597358
v -0.823020 -7.617096 0.783465
v -0.280029 -7.598979 0.543970
v -0.646485 -7.438528 0.726093
v -0.354951 -8.259646 2.036098
v 0.011505 -8.420096 1.853975
v 0.337914 -5.928524 2.312675
v 0.807021 -5.928524 2.212844
v 0.447593 -6.315561 0.523870
v -0.021514 -6.315561 0.623700
v 0.436914 2.631562 2.192748
v 1.081575 2.631562 2.055558
v 0.684603 2.528648 0.190164
v 0.039942 2.528648 0.327354
v 0.162531 2.623692 -2.263081
v -0.482130 2.623692 -2.125891
v -0.078219 2.504101 -0.227892
v 0.566442 2.504101 -0.365081
v -4.270441 -12.204570 0.191249
v -1.697388 -13.440557 -0.867874
v 1.355171 -5.055866 1.098601
v 0.588758 -7.873880 1.020915
v -0.515356 -8.934945 0.847986
v -1.740949 -10.567054 0.550808
v -2.316793 -11.358539 0.333092
v -0.495091 -5.055866 1.385315
v -0.579140 -7.274625 1.424856
v -1.815715 -8.277200 1.316767
v -2.806077 -9.967898 0.813527
v -3.316381 -11.107944 0.408204
v -2.314903 -8.957587 1.329466
v -0.991761 -9.652943 0.904848
v -1.182700 -7.741770 1.492198
v 0.062952 -8.389474 1.078537
v 0.245738 -8.210712 1.079981
v -0.972202 -7.584555 1.498769
v -0.434878 -6.122042 1.460390
v 1.096789 -6.122042 1.270287
v -0.531696 2.580105 1.282600
v 1.515425 2.580105 0.927755
v -3.288449 -12.701709 -0.161901
v -2.501135 -13.046429 -0.553185
v 0.998757 -13.653679 -2.717111
v -1.923208 -13.037737 -2.129245
v -0.996900 -5.088283 -0.972713
v -0.974042 -7.136313 -1.211755
v -1.626446 -8.539766 -1.297892
v -1.687991 -10.529441 -1.587098
v -1.574446 -11.825683 -1.815748
v 0.809208 -5.088284 -1.466909
v 0.315378 -7.136313 -1.685590
v -0.182209 -8.539766 -1.806438
v -0.559637 -10.529441 -2.124866
v -0.687559 -11.522717 -2.240939
v 0.507104 -6.142128 -1.500677
v -0.969061 -6.142128 -1.049768
v -0.004620 -7.779666 -1.872734
v -1.371875 -7.779666 -1.348905
v -0.406484 -9.336232 -2.098112
v -1.852622 -9.336232 -1.529202
v -1.243863 -7.504129 -1.301700
v 0.099696 -7.504129 -1.798299
v 1.022625 2.563896 -1.387941
v -0.991369 2.563897 -0.877429
v -0.832094 -13.313262 -2.392211
v 0.091572 -13.455457 -2.527925
vn 0.1396 0.3445 -0.9283
vn -0.7601 0.6230 0.1847
vn -0.5305 -0.8121 -0.2429
vn -0.0319 -0.0927 0.9952
vn 0.6025 0.5349 -0.5923
vn 0.9249 0.3547 -0.1372
vn 0.9247 0.3552 -0.1369
vn 0.9251 0.3541 -0.1375
vn -0.0209 -0.7751 0.6315
vn -0.0153 -0.7821 0.6229
vn -0.0112 -0.7860 0.6182
vn 0.0756 -0.2111 0.9745
vn 0.6289 0.6120 -0.4795
vn 0.6218 0.6179 -0.4811
vn 0.6380 0.6040 -0.4776
vn -0.9228 0.2908 -0.2526
vn 0.9780 -0.0251 -0.2071
vn 0.9470 -0.2325 -0.2216
vn 0.9509 -0.2127 -0.2250
vn 0.9426 -0.2532 -0.2179
vn 0.6910 -0.5304 -0.4912
vn 0.7666 -0.4513 -0.4568
vn 0.7667 -0.4512 -0.4567
vn 0.7665 -0.4514 -0.4568
vn 0.7739 -0.4468 -0.4489
vn 0.7765 -0.4437 -0.4475
vn 0.7806 -0.4383 -0.4456
vn 0.0559 -0.0259 -0.9981
vn 0.2935 -0.1257 -0.9477
vn 0.4708 0.1380 -0.8714
vn 0.4793 -0.1296 -0.8681
vn 0.5541 -0.2122 -0.8050
vn -0.2526 0.0104 0.9675
vn -0.3411 -0.1563 0.9269
vn -0.1186 0.1513 0.9813
vn -0.5363 -0.2640 0.8017
vn -0.5214 -0.1560 0.8389
vn -0.9967 -0.0040 0.0816
vn -0.9857 0.1520 0.0721
vn -0.6450 0.6636 0.3790
vn -0.9228 0.3286 0.2009
vn -0.9261 0.3532 0.1326
vn -0.9967 -0.0008 0.0816
vn -0.9994 -0.0173 0.0289
vn -0.9391 0.3415 0.0388
vn -0.9880 -0.1516 0.0287
vn -0.9946 -0.0933 -0.0450
vn 0.9775 -0.0252 -0.2095
vn 0.9589 -0.1351 -0.2496
vn 0.9515 -0.2360 -0.1972
vn 0.9699 -0.1197 -0.2120
vn 0.9699 -0.1199 -0.2120
vn 0.9729 -0.1005 -0.2085
vn 0.9727 -0.1015 -0.2085
vn 0.9728 -0.1014 -0.2085
vn 0.1553 -0.0193 0.9877
vn 0.0497 -0.3320 0.9420
vn 0.0079 0.2856 0.9583
vn -0.0744 -0.1957 0.9778
vn -0.0949 -0.2964 0.9503
vn 0.1924 -0.0037 -0.9813
vn 0.3143 -0.0937 -0.9447
vn 0.3737 0.0949 -0.9227
vn 0.4475 -0.1690 -0.8782
vn 0.4958 -0.0426 -0.8674
vn 0.2497 -0.1286 -0.9597
vn 0.1194 -0.1204 0.9855
vn 0.9403 -0.2438 -0.2375
vn -0.9972 -0.0394 0.0632
vn 0.3678 -0.1015 -0.9243
vn -0.0058 -0.3463 0.9381
vn 0.9290 -0.3156 -0.1932
vn -0.9209 0.3894 0.0194
vn 0.3971 0.1364 -0.9076
vn 0.0023 -0.3078 0.9515
vn 0.9593 -0.1908 -0.2082
vn -0.9648 0.2543 0.0667
vn -0.8456 0.5272 0.0835
vn 0.8264 -0.4935 -0.2712
vn 0.0040 0.0259 0.9997
vn 0.3468 0.2336 -0.9084
vn -0.7542 0.5565 0.3486
vn -0.1882 0.1182 0.9750
vn 0.1911 -0.2376 -0.9524
vn 0.7168 -0.5070 -0.4788
vn 0.7138 -0.5100 -0.4800
vn 0.7087 -0.5150 -0.4822
vn -0.5643 0.7291 0.3873
vn -0.3028 -0.0961 0.9482
vn 0.0615 -0.3906 -0.9185
vn 0.6122 -0.5975 -0.5179
vn 0.6017 -0.6411 -0.4765
vn 0.1684 -0.2577 -0.9514
vn 0.0222 0.2956 0.9550
vn -0.4786 0.8026 0.3562
vn -0.9956 -0.0509 0.0786
vn -0.3238 0.0172 0.9460
vn 0.2010 -0.2045 -0.9580
vn 0.9467 -0.2814 -0.1567
vn -0.2986 -0.1213 -0.9466
vn -0.2067 -0.1169 -0.9714
vn 0.6205 -0.1073 0.7768
vn 0.2081 0.0127 0.9780
vn 0.7194 -0.4095 0.5611
vn 0.4288 -0.0448 0.9023
vn -0.3331 0.6233 -0.7075
vn -0.2372 0.4408 -0.8657
vn -0.5361 0.2480 -0.8069
vn -0.4042 0.1078 -0.9083
vn 0.4057 -0.8561 0.3202
vn 0.0807 -0.6617 0.7454
vn -0.5070 0.3063 -0.8057
vn -0.3574 0.2152 -0.9088
vn 0.6988 -0.5255 0.4853
vn 0.3406 -0.2508 0.9062
vn -0.6184 0.5865 -0.5231
vn -0.1799 0.5033 -0.8452
vn 0.6881 -0.5772 0.4397
vn 0.2054 -0.1609 0.9654
vn 0.7699 -0.4101 0.4889
vn 0.1961 -0.3356 0.9214
vn -0.7424 0.3576 -0.5666
vn -0.1971 0.3210 -0.9264
vn 0.7164 -0.5464 0.4339
vn 0.1896 -0.4123 0.8911
vn -0.7426 0.2776 -0.6095
vn -0.2074 0.0835 -0.9747
vn 0.5730 -0.2068 0.7930
vn 0.2067 -0.1160 0.9715
vn -0.6812 -0.0078 -0.7320
vn -0.2081 -0.0183 -0.9779
vn -0.8483 -0.0664 -0.5254
vn -0.2014 -0.0434 -0.9785
vn -0.8168 -0.1794 -0.5483
vn -0.2052 -0.1670 -0.9644
vn -0.7119 0.4008 -0.5767
vn -0.1985 0.3007 -0.9328
vn -0.7322 -0.0328 -0.6803
vn -0.2079 -0.0437 -0.9772
vn -0.6302 0.0054 -0.7764
vn -0.2081 0.0050 -0.9781
vn 0.9416 -0.1903 0.2777
vn 0.2446 -0.3154 0.9169
vn 0.9043 -0.1813 0.3865
vn 0.2052 -0.1671 0.9643
vn 0.8364 0.0199 0.5478
vn 0.2030 0.2220 0.9537
vn 0.7063 -0.3788 0.5981
vn 0.1971 -0.3213 0.9262
vn 0.4558 -0.0276 0.8896
vn 0.2081 -0.0185 0.9779
vn 0.6662 -0.6764 0.3140
vn 0.1602 -0.5684 0.8070
vn 0.5647 -0.7629 0.3150
vn 0.0886 -0.6522 0.7529
vn 0.6806 -0.5218 0.5143
vn 0.3504 -0.2302 0.9079
vn 0.6774 -0.3288 0.6580
vn 0.2579 -0.2758 0.9260
vn 0.5704 0.0017 0.8213
vn 0.2081 0.0111 0.9780
vn -0.5686 0.3911 -0.7237
vn -0.2833 0.2750 -0.9188
vn -0.5062 0.4568 -0.7315
vn -0.2618 0.3993 -0.8786
vn -0.1911 0.7822 -0.5930
vn -0.0638 0.6817 -0.7289
vn -0.4612 -0.0373 -0.8865
vn -0.3098 0.0417 -0.9499
vn -0.2663 -0.0177 -0.9637
vn -0.2081 -0.0171 -0.9780
vn 0.6938 0.5533 0.4610
vn 0.0944 -0.1996 0.9753
vn -0.0538 -0.7819 0.6211
vn -0.0551 -0.7827 0.6200
vn -0.0523 -0.7805 0.6230
vn -0.0371 -0.7751 0.6308
vn -0.2422 0.5709 -0.7845
vn -0.2779 0.5413 -0.7936
vn 0.7023 -0.0721 0.7082
vn 0.1806 -0.2336 0.9554
vn -0.5124 -0.8217 -0.2495
vn -0.5034 -0.8231 -0.2627
vn -0.4976 -0.8223 -0.2762
vn -0.5047 -0.8206 -0.2681
vn -0.4930 -0.8214 -0.2868
vn -0.4924 -0.8249 -0.2777
vn -0.4561 0.2248 -0.8611
vn -0.2350 0.1678 -0.9574
vn -0.5126 -0.8212 -0.2506
vn -0.4841 -0.8318 -0.2716
vn -0.5135 -0.8216 -0.2475
vn 0.9574 -0.2363 -0.1661
vn -0.9377 -0.0370 0.3454
vn -0.4259 0.6409 0.6386
vn 0.5333 -0.6952 -0.4820
vn 0.5834 -0.6191 -0.5257
vn -0.4941 0.5553 0.6690
vn 0.7117 -0.5120 -0.4809
vn -0.6386 0.4727 0.6072
vn -0.8101 0.1432 0.5685
vn -0.8591 0.1509 0.4891
vn -0.5746 0.5099 0.6402
vn -0.9111 0.0535 0.4086
vn -0.9435 -0.0004 0.3315
vn 0.7782 -0.4416 -0.4466
vn 0.7664 -0.4515 -0.4569
vn 0.6959 -0.5257 -0.4893
vn 0.9370 -0.2766 -0.2135
vn 0.9780 -0.0252 -0.2071
vn 0.9252 0.3536 -0.1377
vn -0.4781 -0.8360 -0.2693
vn -0.5998 0.3884 0.6996
vn -0.0269 -0.7738 0.6328
vn -0.0166 -0.7697 0.6381
vn -0.0393 -0.7786 0.6263
vn 0.8904 -0.3725 -0.2614
vn -0.7292 0.5615 0.3912
vn -0.9255 0.1559 0.3451
vn 0.9581 -0.1968 -0.2080
vn -0.8684 0.3433 0.3577
vn 0.9376 -0.2876 -0.1954
vn -0.9402 -0.0514 0.3367
vn 0.9295 -0.2796 -0.2407
vn 0.9729 -0.1003 -0.2085
vn 0.9699 -0.1196 -0.2120
vn 0.9499 -0.2427 -0.1967
vn 0.9575 -0.1414 -0.2515
vn 0.9775 -0.0250 -0.2095
vn -0.8817 -0.1701 0.4400
vn -0.9163 -0.1591 0.3675
vn -0.8804 0.3329 0.3378
vn -0.9308 -0.0707 0.3585
vn -0.9436 -0.0040 0.3310
vn -0.8533 0.1093 0.5099
vn 0.6443 0.5984 -0.4762
vn -0.0705 -0.7763 0.6264
vt 0.375000 0.666667
vt 0.375000 0.750000
vt 0.375000 0.306121
vt 0.375000 0.362242
vt 0.181121 0.666667
vt 0.237242 0.666667
vt 0.237242 0.750000
vt 0.181121 0.750000
vt 0.375000 0.166667
vt 0.375000 0.250000
vt 0.375000 0.943879
vt 0.375000 1.000000
vt 0.316514 0.666667
vt 0.316514 0.750000
vt 0.258027 0.583333
vt 0.258027 0.500000
vt 0.258028 0.500000
vt 0.375000 0.808486
vt 0.375000 0.866973
vt 0.375000 0.441514
vt 0.375000 0.500000
vt 0.375000 0.441514
vt 0.375000 0.362242
vt 0.375000 0.500000
vt 0.375000 0.866972
vt 0.375000 0.808486
vt 0.375000 0.866973
vt 0.375000 0.666667
vt 0.375000 0.666667
vt 0.375000 0.750000
vt 0.375000 0.866972
vt 0.375000 0.362242
vt 0.237242 0.500000
vt 0.237242 0.583333
vt 0.375000 0.000000
vt 0.375000 0.083333
vt 0.375000 0.583333
vt 0.258027 0.750000
vt 0.258027 0.666667
vt 0.258028 0.750000
vt 0.375000 0.583333
vt 0.375000 0.583333
vt 0.316514 0.500000
vt 0.316514 0.583333
vt 0.181121 0.500000
vt 0.181121 0.583333
vt 0.125000 0.583333
vt 0.125000 0.666667
vt 0.125000 0.500000
vt 0.375000 0.887758
vt 0.375000 0.887758
vt 0.125000 0.750000
vt 0.375000 0.383028
vt 0.375000 0.383027
s 1
f 135/1/1 33/2/1 5/2/1 93/1/1
f 188/3/2 13/4/2 3/4/2 177/3/2
f 200/5/3 92/6/3 4/7/3 178/8/3
f 115/9/4 14/10/4 2/10/4 89/9/4
f 105/6/5 28/7/5 4/7/5 92/6/5
f 183/11/6 19/12/7 1/12/7 178/11/8
f 224/13/9 93/1/10 5/2/11 201/14/11
f 125/15/12 43/16/12 7/17/12 95/15/12
f 212/18/13 44/19/14 8/19/14 201/18/15
f 207/20/16 34/21/16 6/21/16 202/22/16
f 198/11/17 82/12/17 23/12/17 179/11/17
f 196/11/18 79/12/19 22/12/19 180/11/20
f 192/11/21 71/12/21 21/12/21 181/11/21
f 190/11/22 67/12/23 20/12/23 182/11/24
f 182/11/25 20/12/26 19/12/26 183/11/27
f 171/6/28 84/7/28 24/7/28 97/6/28
f 167/6/29 80/7/29 25/7/29 99/6/29
f 159/6/30 72/7/30 26/7/30 101/6/30
f 155/6/31 68/7/31 27/7/31 103/6/31
f 103/6/32 27/7/32 28/7/32 105/6/32
f 169/9/33 81/10/33 18/10/33 107/9/33
f 165/9/34 78/10/34 17/10/34 109/9/34
f 157/9/35 70/10/35 16/10/35 111/9/35
f 153/9/36 66/10/36 15/10/36 113/9/36
f 113/9/37 15/10/37 14/10/37 115/9/37
f 197/3/38 83/4/38 9/4/38 184/3/38
f 195/3/39 77/4/39 10/4/39 185/3/39
f 191/3/40 69/23/40 11/4/40 186/3/40
f 189/3/41 65/4/41 12/4/41 187/3/41
f 187/3/42 12/4/42 13/4/42 188/3/42
f 222/22/43 85/21/43 38/21/43 203/22/43
f 214/20/44 50/21/44 37/21/44 204/22/44
f 216/20/45 54/24/45 36/21/45 205/22/45
f 218/20/46 58/21/46 35/21/46 206/20/46
f 206/20/47 35/21/47 34/21/47 207/20/47
f 221/18/48 86/19/48 48/19/48 208/18/48
f 213/18/49 52/19/49 47/19/49 209/18/49
f 215/18/50 56/25/50 46/19/50 210/18/50
f 217/26/51 60/27/52 45/19/52 211/18/51
f 211/18/53 45/19/54 44/19/54 212/18/55
f 175/15/56 88/17/56 39/17/56 117/15/56
f 139/15/57 51/17/57 40/17/57 119/15/57
f 143/15/58 55/17/58 41/17/58 121/15/58
f 147/15/59 59/16/59 42/16/59 123/15/59
f 123/15/60 42/16/60 43/16/60 125/15/60
f 173/1/61 87/2/61 29/2/61 127/1/61
f 137/1/62 49/2/62 30/2/62 129/1/62
f 141/28/63 53/2/63 31/2/63 131/1/63
f 145/29/64 57/30/64 32/2/64 133/1/64
f 133/1/65 32/2/65 33/2/65 135/1/65
f 127/1/66 29/2/66 49/2/66 137/1/66
f 117/15/67 39/17/67 51/17/67 139/15/67
f 208/18/68 48/19/68 52/19/68 213/18/68
f 203/22/69 38/21/69 50/21/69 214/20/69
f 151/1/70 63/2/70 53/2/70 141/28/70
f 149/15/71 64/17/71 55/17/71 143/15/71
f 220/18/72 62/31/72 56/25/72 215/18/72
f 219/20/73 61/21/73 54/24/73 216/20/73
f 131/1/74 31/2/74 57/30/74 145/29/74
f 121/15/75 41/17/75 59/16/75 147/15/75
f 210/18/76 46/19/76 60/27/76 217/26/76
f 205/22/77 36/21/77 58/21/77 218/20/77
f 204/22/78 37/21/78 61/21/78 219/20/78
f 209/18/79 47/19/79 62/31/79 220/18/79
f 119/15/80 40/17/80 64/17/80 149/15/80
f 129/1/81 30/2/81 63/2/81 151/1/81
f 186/3/82 11/4/82 65/4/82 189/3/82
f 111/9/83 16/10/83 66/10/83 153/9/83
f 101/6/84 26/7/84 68/7/84 155/6/84
f 181/11/85 21/12/86 67/12/86 190/11/87
f 194/3/88 75/32/88 69/23/88 191/3/88
f 163/9/89 73/10/89 70/10/89 157/9/89
f 161/6/90 76/7/90 72/7/90 159/6/90
f 193/11/91 74/12/91 71/12/91 192/11/91
f 180/11/92 22/12/92 74/12/92 193/11/92
f 99/6/93 25/7/93 76/7/93 161/6/93
f 109/9/94 17/10/94 73/10/94 163/9/94
f 185/3/95 10/4/95 75/32/95 194/3/95
f 184/3/96 9/4/96 77/4/96 195/3/96
f 107/9/97 18/10/97 78/10/97 165/9/97
f 97/6/98 24/7/98 80/7/98 167/6/98
f 179/11/99 23/12/99 79/12/99 196/11/99
f 9/33/100 98/34/100 168/34/100 77/33/100
f 98/34/101 97/6/101 167/6/101 168/34/101
f 23/35/102 108/36/102 166/36/102 79/35/102
f 108/36/103 107/9/103 165/9/103 166/36/103
f 22/35/104 110/36/104 164/36/104 74/35/104
f 110/36/105 109/9/105 163/9/105 164/36/105
f 10/33/106 100/34/106 162/34/106 75/33/106
f 100/34/107 99/6/107 161/6/107 162/34/107
f 75/33/108 162/34/108 160/34/108 69/33/108
f 162/34/109 161/6/109 159/6/109 160/34/109
f 74/35/110 164/36/110 158/36/110 71/35/110
f 164/36/111 163/9/111 157/9/111 158/36/111
f 11/33/112 102/34/112 156/34/112 65/33/112
f 102/34/113 101/6/113 155/6/113 156/34/113
f 21/35/114 112/36/114 154/36/114 67/35/114
f 112/36/115 111/9/115 153/9/115 154/36/115
f 37/21/116 130/37/116 152/37/116 61/21/116
f 130/37/117 129/1/117 151/1/117 152/37/117
f 47/38/118 120/39/118 150/39/118 62/38/118
f 120/39/119 119/15/119 149/15/119 150/39/119
f 46/40/120 122/39/120 148/39/120 60/40/120
f 122/39/121 121/15/121 147/15/121 148/39/121
f 36/21/122 132/37/122 146/41/122 58/21/122
f 132/37/123 131/1/123 145/29/123 146/41/123
f 62/38/124 150/39/124 144/39/124 56/38/124
f 150/39/125 149/15/125 143/15/125 144/39/125
f 61/21/126 152/37/126 142/42/126 54/24/126
f 152/37/127 151/1/127 141/28/127 142/42/127
f 48/38/128 118/39/128 140/39/128 52/38/128
f 118/39/129 117/15/129 139/15/129 140/39/129
f 38/21/130 128/37/130 138/37/130 50/21/130
f 128/37/131 127/1/131 137/1/131 138/37/131
f 35/21/132 134/37/132 136/37/132 34/21/132
f 134/37/133 133/1/133 135/1/133 136/37/133
f 58/21/134 146/41/134 134/37/134 35/21/134
f 146/41/135 145/29/135 133/1/135 134/37/135
f 54/24/136 142/42/136 132/37/136 36/21/136
f 142/42/137 141/28/137 131/1/137 132/37/137
f 50/21/138 138/37/138 130/37/138 37/21/138
f 138/37/139 137/1/139 129/1/139 130/37/139
f 85/21/140 174/37/140 128/37/140 38/21/140
f 174/37/141 173/1/141 127/1/141 128/37/141
f 45/40/142 124/39/142 126/39/142 44/40/142
f 124/39/143 123/15/143 125/15/143 126/39/143
f 60/40/144 148/39/144 124/39/144 45/40/144
f 148/39/145 147/15/145 123/15/145 124/39/145
f 56/38/146 144/39/146 122/39/146 46/40/146
f 144/39/147 143/15/147 121/15/147 122/39/147
f 52/38/148 140/39/148 120/39/148 47/38/148
f 140/39/149 139/15/149 119/15/149 120/39/149
f 86/38/150 176/39/150 118/39/150 48/38/150
f 176/39/151 175/15/151 117/15/151 118/39/151
f 20/35/152 114/36/152 116/36/152 19/35/152
f 114/36/153 113/9/153 115/9/153 116/36/153
f 67/35/154 154/36/154 114/36/154 20/35/154
f 154/36/155 153/9/155 113/9/155 114/36/155
f 71/35/156 158/36/156 112/36/156 21/35/156
f 158/36/157 157/9/157 111/9/157 112/36/157
f 79/35/158 166/36/158 110/36/158 22/35/158
f 166/36/159 165/9/159 109/9/159 110/36/159
f 82/35/160 170/36/160 108/36/160 23/35/160
f 170/36/161 169/9/161 107/9/161 108/36/161
f 12/33/162 104/34/162 106/34/162 13/33/162
f 104/34/163 103/6/163 105/6/163 106/34/163
f 65/33/164 156/34/164 104/34/164 12/33/164
f 156/34/165 155/6/165 103/6/165 104/34/165
f 69/33/166 160/34/166 102/34/166 11/33/166
f 160/34/167 159/6/167 101/6/167 102/34/167
f 77/33/168 168/34/168 100/34/168 10/33/168
f 168/34/169 167/6/169 99/6/169 100/34/169
f 83/33/170 172/34/170 98/34/170 9/33/170
f 172/34/171 171/6/171 97/6/171 98/34/171
f 44/40/172 126/39/172 96/39/172 8/40/172
f 126/39/173 125/15/173 95/15/173 96/39/173
f 202/43/174 6/21/175 94/37/176 223/44/177
f 223/44/177 94/37/176 93/1/10 224/13/9
f 13/33/178 106/34/178 91/34/178 3/33/178
f 106/34/179 105/6/179 92/6/179 91/34/179
f 19/35/180 116/36/180 90/36/180 1/35/180
f 116/36/181 115/9/181 89/9/181 90/36/181
f 177/45/182 3/33/183 91/34/184 199/46/185
f 199/46/185 91/34/184 92/6/186 200/5/187
f 34/21/188 136/37/188 94/37/188 6/21/188
f 136/37/189 135/1/189 93/1/189 94/37/189
f 89/47/190 199/46/185 200/5/187 90/48/191
f 2/49/192 177/45/182 199/46/185 89/47/190
f 24/50/193 179/11/193 196/11/193 80/50/193
f 18/10/194 184/3/194 195/3/194 78/10/194
f 17/10/195 185/3/195 194/3/195 73/10/195
f 25/51/196 180/11/196 193/11/196 76/51/196
f 76/51/197 193/11/197 192/11/197 72/51/197
f 73/10/198 194/3/198 191/3/198 70/10/198
f 26/51/199 181/11/85 190/11/87 68/50/199
f 16/10/200 186/3/200 189/3/200 66/10/200
f 15/10/201 187/3/201 188/3/201 14/10/201
f 66/10/202 189/3/202 187/3/202 15/10/202
f 70/10/203 191/3/203 186/3/203 16/10/203
f 78/10/204 195/3/204 185/3/204 17/10/204
f 81/10/205 197/3/205 184/3/205 18/10/205
f 27/50/206 182/11/25 183/11/27 28/50/206
f 68/50/207 190/11/22 182/11/24 27/50/207
f 72/51/208 192/11/208 181/11/208 26/51/208
f 80/50/209 196/11/18 180/11/20 25/51/209
f 84/50/210 198/11/210 179/11/210 24/50/210
f 28/50/211 183/11/6 178/11/8 4/50/211
f 90/48/191 200/5/187 178/8/212 1/52/212
f 14/10/213 188/3/213 177/3/213 2/10/213
f 95/15/214 223/44/177 224/13/9 96/39/215
f 7/17/216 202/43/174 223/44/177 95/15/214
f 30/2/217 209/18/217 220/18/217 63/2/217
f 40/53/218 204/22/218 219/20/218 64/54/218
f 41/53/219 205/22/219 218/20/219 59/54/219
f 31/2/220 210/18/220 217/26/220 57/30/220
f 64/54/221 219/20/221 216/20/221 55/53/221
f 63/2/222 220/18/222 215/18/222 53/2/222
f 39/53/223 203/22/223 214/20/223 51/54/223
f 29/2/224 208/18/224 213/18/224 49/2/224
f 32/2/225 211/18/53 212/18/55 33/2/225
f 57/30/226 217/26/51 211/18/51 32/2/226
f 53/2/227 215/18/227 210/18/227 31/2/227
f 49/2/228 213/18/228 209/18/228 30/2/228
f 87/2/229 221/18/229 208/18/229 29/2/229
f 42/54/230 206/20/230 207/20/230 43/54/230
f 59/54/231 218/20/231 206/20/231 42/54/231
f 55/53/232 216/20/232 205/22/232 41/53/232
f 51/54/233 214/20/233 204/22/233 40/53/233
f 88/53/234 222/22/234 203/22/234 39/53/234
f 43/54/235 207/20/235 202/22/235 7/53/235
f 33/2/236 212/18/13 201/18/15 5/2/236
f 96/39/237 224/13/237 201/14/237 8/40/237
