# Blender 5.0.1
# www.blender.org
mtllib Untitled.mtl
o Cube
v -0.358418 1.687815 0.418717
v -0.358418 1.687815 -0.381650
v 0.364994 1.687815 0.418717
v 1.029410 3.901508 0.327662
v 0.364994 1.687815 -0.381650
v 0.003288 3.649233 0.018533
v -1.109651 3.649233 -0.001750
v 1.123314 3.649233 0.018351
v 0.002156 3.649233 0.019786
v 0.004501 3.649233 0.019876
v -0.041828 3.754129 -0.999608
v 0.004215 3.649233 0.017508
v 0.362974 2.781440 0.333878
v 0.364994 1.687815 0.049562
v -0.358418 1.687815 0.018382
v 0.009164 1.687815 -0.381650
v 0.009164 1.687815 0.418717
v -0.367764 4.974398 -0.615326
v -0.327404 6.431248 -0.240544
v -0.904604 4.947321 -1.132627
v -0.825667 4.924023 -0.575158
v 0.439264 5.009342 -0.697649
v 0.457988 6.443357 -0.204921
v 0.363133 4.888257 -1.117409
v 0.373093 4.923005 -1.118213
v 0.373093 4.923005 -1.118213
v 0.439264 5.009342 -0.697649
v 0.921364 4.978203 -0.680905
v 0.657631 4.874792 -1.005315
v 0.373093 4.923005 -1.118213
v 0.439264 5.009342 -0.697649
v 0.921364 4.978203 -0.680905
v 0.657631 4.874792 -1.005315
v 0.373093 4.923005 -1.118213
v 0.439264 5.009342 -0.697649
v 0.921364 4.978203 -0.680905
v 0.657631 4.874792 -1.005315
v 0.373093 4.923005 -1.118213
v 0.439264 5.009342 -0.697649
v 0.921364 4.978203 -0.680905
v 0.657631 4.874792 -1.005315
v 0.361445 0.181828 -0.382975
v 0.361445 1.720621 -0.382975
v 0.361445 0.181828 0.409619
v 0.361445 1.720621 0.409619
v -0.357291 0.181828 -0.382975
v -0.357291 1.720621 -0.382975
v -0.357291 0.181828 0.409619
v -0.357291 1.720621 0.409619
v -1.554339 3.893642 0.789914
v -1.206019 3.851914 0.833270
v -1.184627 4.040953 0.377364
v -1.689244 5.551914 0.968426
v 1.086631 3.949706 0.500805
v 0.964211 3.557744 0.448491
v 1.294527 3.705858 0.552207
v 1.818441 5.205867 1.106731
v -0.010273 3.441959 0.119486
v -0.592833 3.304138 0.600702
v -0.005822 1.899420 0.430201
v 0.601542 3.150415 0.604580
vn -0.0000 -1.0000 -0.0000
vn -0.0001 1.0000 -0.0000
vn -0.0000 1.0000 -0.0000
vn 0.9346 -0.2244 -0.2759
vn 0.0001 1.0000 -0.0000
vn -0.6211 0.6432 -0.4478
vn -0.6940 0.0704 0.7165
vn -0.9388 -0.1945 -0.2844
vn 0.9303 0.1427 0.3380
vn 0.1613 -0.0221 -0.9867
vn -0.0020 0.4211 0.9070
vn -0.9787 -0.0629 0.1956
vn 0.2536 -0.2310 -0.9393
vn -0.0007 0.4664 0.8846
vn 0.8440 -0.2273 -0.4858
vn -0.9370 0.3405 0.0775
vn -0.0537 -0.3239 0.9446
vn 0.5072 0.4421 -0.7398
vn -0.3483 0.1213 0.9295
vn 1.0000 -0.0000 -0.0000
vn -0.0000 -0.0000 1.0000
vn -1.0000 -0.0000 -0.0000
vn -0.0000 -0.0000 -1.0000
vn -0.1365 -0.1170 0.9837
vn -0.9015 -0.2697 -0.3385
vn 0.8956 0.3857 -0.2214
vn -0.4019 -0.1523 0.9029
vn 0.9117 -0.3829 -0.1489
vn -0.0009 0.7748 -0.6322
vn 0.9538 0.2590 0.1522
vn 0.0222 0.1975 0.9801
vn -0.3804 0.4699 0.7965
vn 0.5204 0.5723 0.6337
vn 0.0561 -0.0780 0.9954
vn 0.0802 -0.1341 0.9877
vn 0.0139 0.6968 -0.7172
vt 0.125000 0.500000
vt 0.252031 0.500000
vt 0.252031 0.750000
vt 0.125000 0.750000
vt 0.125000 0.624953
vt 0.750391 0.625391
vt 0.749581 0.625419
vt 0.750000 0.625000
vt 0.875000 0.621065
vt 0.572517 0.750000
vt 0.625000 0.629744
vt 0.625000 0.682018
vt 0.749680 0.624680
vt 0.667894 0.707106
vt 0.661222 0.713778
vt 0.375000 0.500000
vt 0.375000 0.634692
vt 0.375000 0.750000
vt 0.823622 0.551378
vt 0.818172 0.500000
vt 0.560339 0.250000
vt 0.750000 0.375000
vt 0.375000 0.125047
vt 0.625000 0.128935
vt 0.625000 0.196526
vt 0.375000 0.250000
vt 0.753992 0.500000
vt 0.625000 0.306828
vt 0.625000 0.371008
vt 0.375000 0.377031
vt 0.678184 0.553184
vt 0.625000 0.557048
vt 0.558866 0.500000
vt 0.645827 0.458345
vt 0.375000 0.000000
vt 0.625000 0.000000
vt 0.625000 0.250000
vt 0.625000 0.500000
vt 0.625000 0.750000
vt 0.625000 1.000000
vt 0.375000 1.000000
vt 0.875000 0.500000
vt 0.875000 0.750000
vt 0.573600 0.000000
vt 0.625000 0.966712
vt 0.875000 0.684419
vt 0.838988 0.713988
vt 0.644741 0.759871
vt 0.748651 0.652752
vt 0.791101 0.750000
vt 0.427033 0.872423
vt 0.666250 0.786631
vt 0.841712 0.750000
vt 0.634239 0.818641
vt 0.427034 0.872423
vt 0.375000 0.872969
vt 0.625000 0.916101
vt 0.573600 1.000000
s 0
f 2/1/1 16/2/1 17/3/1 1/4/1 15/5/1
f 9/6/2 10/7/2 6/8/2
f 7/9/3 9/6/3 6/8/3
f 56/10/4 8/11/4 57/12/4
f 10/7/5 12/13/5 6/8/5
f 4/14/6 54/15/6 57/12/6 8/11/6
f 17/3/1 16/2/1 5/16/1 14/17/1 3/18/1
f 18/19/7 19/20/7 20/21/7 21/22/7
f 15/23/8 7/24/8 21/25/8 20/21/8 2/26/8
f 19/20/9 18/19/9 6/8/9 12/13/9 11/27/9
f 2/26/10 20/21/10 19/28/10 11/29/10 16/30/10
f 7/9/11 6/8/11 18/19/11 21/22/11
f 22/31/12 23/32/12 24/33/12 25/34/12
f 16/30/13 11/29/13 26/34/13 29/33/13 5/16/13
f 28/32/14 27/31/14 12/13/14 10/7/14 8/11/14
f 5/16/15 29/33/15 28/32/15 8/11/15 14/17/15
f 11/27/16 12/13/16 27/31/16 26/34/16
f 31/31/3 30/34/3 26/34/3 27/31/3
f 32/32/3 31/31/3 27/31/3 28/32/3
f 33/33/3 32/32/3 28/32/3 29/33/3
f 30/34/3 33/33/3 29/33/3 26/34/3
f 35/31/3 34/34/3 30/34/3 31/31/3
f 36/32/3 35/31/3 31/31/3 32/32/3
f 37/33/3 36/32/3 32/32/3 33/33/3
f 34/34/3 37/33/3 33/33/3 30/34/3
f 39/31/3 38/34/3 34/34/3 35/31/3
f 40/32/3 39/31/3 35/31/3 36/32/3
f 41/33/3 40/32/3 36/32/3 37/33/3
f 38/34/3 41/33/3 37/33/3 34/34/3
f 22/31/3 25/34/3 38/34/3 39/31/3
f 23/32/17 22/31/17 39/31/17 40/32/17
f 24/33/18 23/32/18 40/32/18 41/33/18
f 25/34/19 24/33/19 41/33/19 38/34/19
f 42/35/20 43/36/20 45/37/20 44/26/20
f 44/26/21 45/37/21 49/38/21 48/16/21
f 48/16/22 49/38/22 47/39/22 46/18/22
f 46/18/23 47/39/23 43/40/23 42/41/23
f 44/1/1 48/16/1 46/18/1 42/4/1
f 49/38/3 45/42/3 43/43/3 47/39/3
f 50/44/24 51/45/24 53/22/24
f 1/35/25 50/44/25 53/22/25 7/24/25 15/23/25
f 53/46/26 52/47/26 7/9/26
f 54/15/27 55/48/27 56/10/27 57/12/27
f 14/17/28 8/11/28 56/10/28 3/18/28
f 8/11/29 10/7/29 4/14/29
f 53/22/30 51/45/30 52/47/30
f 58/49/31 59/50/31 60/51/31 61/52/31
f 55/48/32 54/15/32 4/14/32 10/7/32 58/49/32 61/52/32
f 59/50/33 58/49/33 10/7/33 9/6/33 52/47/33 51/53/33
f 3/18/34 56/10/34 55/48/34 61/54/34 60/55/34 17/56/34
f 17/56/35 60/55/35 59/57/35 51/45/35 50/58/35 1/41/35
f 7/9/36 52/47/36 9/6/36
l 12 13
o Cube.001
v 0.476145 1.834915 0.465355
v 0.476145 -2.553216 0.465355
v 0.473017 1.841864 -0.455506
v 0.476145 -2.553216 -0.446318
v -0.463453 1.834915 0.465355
v -0.463454 -2.553216 0.465355
v -0.467220 1.847245 -0.445266
v -0.463454 -2.553216 -0.446318
v 0.476145 1.834915 -0.446318
v 0.476145 1.834915 0.465355
v -0.463453 1.834915 -0.446318
v -0.463453 1.834915 0.465355
v 0.476145 1.834915 -0.446318
v 0.476145 1.834915 0.465355
v -0.463453 1.834915 -0.446318
v -0.463453 1.834915 0.465355
vn 1.0000 -0.0000 -0.0000
vn -0.0000 -0.0000 -1.0000
vn -1.0000 -0.0000 -0.0000
vn -0.0000 -0.0000 1.0000
vn 0.0029 0.9999 0.0105
vn -0.0000 -1.0000 -0.0000
vn 0.9119 0.4105 -0.0000
vn -0.0061 -0.3907 -0.9205
vn -0.9564 -0.2922 -0.0000
vt 0.375000 0.000000
vt 0.625000 0.000000
vt 0.625000 0.250000
vt 0.375000 0.250000
vt 0.625000 0.500000
vt 0.375000 0.500000
vt 0.625000 0.750000
vt 0.375000 0.750000
vt 0.625000 1.000000
vt 0.375000 1.000000
vt 0.125000 0.500000
vt 0.125000 0.750000
vt 0.875000 0.500000
vt 0.875000 0.750000
s 0
f 71/59/37 63/60/37 65/61/37 70/62/37
f 70/62/38 65/61/38 69/63/38 72/64/38
f 72/64/39 69/63/39 67/65/39 73/66/39
f 73/66/40 67/65/40 63/67/40 71/68/40
f 64/69/41 68/64/41 66/66/41 62/70/41
f 69/63/42 65/71/42 63/72/42 67/65/42
f 74/69/42 75/70/42 71/70/42 70/69/42
f 76/64/42 74/69/42 70/69/42 72/64/42
f 77/66/42 76/64/42 72/64/42 73/66/42
f 75/70/42 77/66/42 73/66/42 71/70/42
f 64/69/43 62/70/43 75/70/43 74/69/43
f 68/64/44 64/69/44 74/69/44 76/64/44
f 66/66/45 68/64/45 76/64/45 77/66/45
f 62/70/42 66/66/42 77/66/42 75/70/42
